# xmcd
#
# Track frame offsets:
#	150
#	18555
#	34755
#	47382
#	61557
#	74992
#	89125
#	99567
#	112330
#	123390
#	134562
#	146452
#	159730
#	170645
#	179007
#	193555
#	205205
#
# Disc length: 2955 seconds
#
# Revision: 1
# Processed by: cddbd v1.5.2PL0 Copyright (c) Steve Scherf et al.
# Submitted via: audiograbber 1.83.01
#
DISCID=080b8911
DTITLE=Various Artist - Country Christmas
DYEAR=1900
DGENRE=
TTITLE0=Elvis Presley - O Come All Ye Faithful
TTITLE1=Reba McEntire - Silent Night
TTITLE2=Gatlin Brothers - Oh Holy Night
TTITLE3=Jim Reeves - Mary's Little Boy Child
TTITLE4=Loretta Lynn - The First Noel
TTITLE5=Marty Robbins - Hark, The Herald Angels Sing
TTITLE6=Tanya Tucker - Away in a Manger
TTITLE7=George Jones - O Little Town of Bethlehem
TTITLE8=Charlie Rich - God Rest Ye Merry Gentlemen
TTITLE9=Elvis Presley - Silver Bells
TTITLE10=Barbara Mandrell - Winter Wonderland
TTITLE11=Lee Greenwood - I'll be Home For Christmas
TTITLE12=Willie Nelson - Pretty Paper
TTITLE13=Charlie Pride - Let it Snow
TTITLE14=Gene Autry - Rudolph the Red Nosed Reindeer
TTITLE15=Johnny Cash - Little Drummer Boy
TTITLE16=KT Oslin - Blue Christmas
EXTD=Country Christmas
EXTT0=
EXTT1=
EXTT2=
EXTT3=
EXTT4=
EXTT5=
EXTT6=
EXTT7=
EXTT8=
EXTT9=
EXTT10=
EXTT11=
EXTT12=
EXTT13=
EXTT14=
EXTT15=
EXTT16=
PLAYORDER=
